:SAMPLES-PER-SECOND 30
:FULLY-SPECIFIED
:DEGREES
77
root  -11.1411 40.7819 -7.32446 -44.2348 -86.4814 42.0482
RightUpLeg  -4.28329 -12.2818 -13.9093
RightLeg  4.07594 -2.09797 2.7198
RightFoot  5.74085 -0.869463 6.04724
RightToes  0.00048216 0.542163 -0.142577
Spine  4.6873 3.82291 5.57757
Spine1  13.3641 8.6227 -14.2615
HEad  -8.00078 -8.94477 -1.24756
LeftShoulder1  6.94285 -11.5601 -39.8468
LeftArm  -25.1676 18.6358 -25.472
LeftForeArm  39.5605 -48.0447 -9.57727
LeftHand  -0.25398 0.0180481 5.50724
RightShoulder  5.14278 10.1207 31.8242
RightArm  8.78774 34.6323 44.0588
RightForeArm  20.375 49.0762 11.4103
RightHand  -0.232863 -2.65367 -9.29156
LeftUpLeg  -2.52698 4.09899 -0.348307
LeftLeg  4.9814 8.91958 -4.09771
LeftFoot  -0.287099 -0.278034 2.89144
LeftToes  1.06246e-005 4.65855e-005 -8.18503e-006
78
root  -11.4643 40.8381 -7.52526 -33.5107 -85.9311 31.7815
RightUpLeg  -3.73696 -11.8926 -13.4832
RightLeg  3.55411 -3.38389 2.73287
RightFoot  5.31338 -0.835489 5.95183
RightToes  0.00048216 0.542163 -0.142577
Spine  4.2084 3.70488 5.18724
Spine1  13.5688 7.99367 -12.6335
HEad  -9.68981 -9.42305 -1.38556
LeftShoulder1  6.98704 -11.5825 -40.0588
LeftArm  -22.5772 18.1813 -26.3206
LeftForeArm  36.6259 -39.7238 -6.98787
LeftHand  -0.25398 0.0180481 5.50724
RightShoulder  5.79639 10.4099 35.6966
RightArm  1.8148 23.8379 41.9388
RightForeArm  22.4328 51.0758 12.1364
RightHand  -0.390568 -1.77059 -12.2651
LeftUpLeg  -2.38013 4.08585 0.0812443
LeftLeg  4.55305 7.95503 -4.00335
LeftFoot  -0.315574 -0.235384 2.45886
LeftToes  1.06246e-005 4.65855e-005 -8.18503e-006
79
root  -11.7676 40.8923 -7.70511 -26.5852 -85.3808 25.2175
RightUpLeg  -3.06699 -11.6965 -13.1551
RightLeg  2.83296 -4.1992 2.88757
RightFoot  5.12649 -0.801644 5.77726
RightToes  0.00048216 0.542163 -0.142577
Spine  3.68973 3.36042 4.8381
Spine1  13.8554 7.15701 -11.0874
HEad  -10.9817 -9.39993 -1.55219
LeftShoulder1  7.17435 -11.7132 -40.8447
LeftArm  -19.0779 17.9388 -26.4083
LeftForeArm  33.9848 -31.0965 -4.88016
LeftHand  -0.25398 0.0180481 5.50724
RightShoulder  6.05128 10.3003 37.8033
RightArm  -5.2887 14.1928 41.9529
RightForeArm  21.3235 47.4331 10.7019
RightHand  -0.673169 -0.401185 -15.4872
LeftUpLeg  -2.18239 4.02022 0.438438
LeftLeg  4.15074 7.18166 -3.86692
LeftFoot  -0.304056 -0.20446 2.1353
LeftToes  1.06246e-005 4.65855e-005 -8.18503e-006
80
root  -12.0631 40.937 -7.85779 -24.3992 -85.2247 23.2011
RightUpLeg  -2.42693 -11.5873 -12.8917
RightLeg  2.3113 -4.59037 3.00807
RightFoot  4.76085 -0.747818 5.51288
RightToes  0.00048216 0.542163 -0.142577
Spine  3.06649 2.85724 4.34548
Spine1  14.3558 6.15657 -9.54054
HEad  -11.6792 -8.78346 -1.56565
LeftShoulder1  7.36951 -11.7412 -41.9626
LeftArm  -15.4392 18.4031 -26.4609
LeftForeArm  31.8374 -23.4366 -3.46646
LeftHand  -0.25398 0.0180481 5.50724
RightShoulder  6.04002 10.0173 38.6018
RightArm  -11.4598 7.33993 42.7684
RightForeArm  14.8097 37.1518 7.62065
RightHand  -1.23174 2.37627 -18.5478
LeftUpLeg  -1.70951 3.99652 0.735313
LeftLeg  3.7024 6.87083 -3.74915
LeftFoot  -0.377548 -0.176404 1.8619
LeftToes  1.06246e-005 4.65855e-005 -8.18503e-006
81
root  -12.3428 40.9647 -7.98952 -26.4166 -85.7028 25.255
RightUpLeg  -2.0694 -11.3656 -12.5734
RightLeg  2.16828 -4.44144 2.97438
RightFoot  4.28067 -0.712381 5.40294
RightToes  0.00048216 0.542163 -0.142577
Spine  2.44658 2.42255 3.9515
Spine1  14.938 5.32336 -8.32102
HEad  -11.6267 -8.09212 -1.31485
LeftShoulder1  7.4876 -11.6861 -42.8453
LeftArm  -13.5575 19.5865 -27.0928
LeftForeArm  31.7677 -17.2036 -3.20938
LeftHand  -0.25398 0.0180481 5.50724
RightShoulder  6.04434 9.90042 39.0048
RightArm  -16.8949 3.44093 42.2112
RightForeArm  6.14301 21.9298 4.72236
RightHand  -1.61694 4.33933 -19.48
LeftUpLeg  -1.08347 4.114 1.05357
LeftLeg  3.36265 7.11833 -3.68141
LeftFoot  -0.597349 -0.146523 1.59652
LeftToes  1.06246e-005 4.65855e-005 -8.18503e-006
82
root  -12.584 40.9757 -8.10809 -33.3901 -86.6668 32.2094
RightUpLeg  -2.07672 -11.0769 -12.1716
RightLeg  2.38431 -3.65306 2.85898
RightFoot  3.91896 -0.690565 5.35075
RightToes  0.00048216 0.542163 -0.142577
Spine  2.08241 2.28413 4.03582
Spine1  15.51 4.96718 -7.60456
HEad  -11.0598 -7.98216 -0.934219
LeftShoulder1  7.56799 -11.6792 -43.3541
LeftArm  -13.6805 20.9543 -28.3514
LeftForeArm  33.995 -12.4868 -3.62461
LeftHand  -0.25398 0.0180481 5.50724
RightShoulder  6.21256 10.069 39.6521
RightArm  -23.9386 0.264139 39.3533
RightForeArm  4.66273 7.7222 3.29324
RightHand  -1.28398 3.33502 -17.2037
LeftUpLeg  -0.510679 4.35481 1.42557
LeftLeg  3.2782 7.79829 -3.64567
LeftFoot  -0.947771 -0.115297 1.3306
LeftToes  1.06246e-005 4.65855e-005 -8.18503e-006
83
root  -12.7786 40.9747 -8.21575 -48.289 -87.6335 47.0593
RightUpLeg  -2.30281 -10.8337 -11.7991
RightLeg  2.88661 -2.65774 2.75461
RightFoot  3.56592 -0.64912 5.14367
RightToes  0.00048216 0.542163 -0.142577
Spine  2.14394 2.37944 4.57155
Spine1  16.1108 4.98436 -7.21259
HEad  -10.5945 -8.47768 -0.5006
LeftShoulder1  7.62066 -11.683 -43.6617
LeftArm  -13.6442 22.153 -29.9936
LeftForeArm  36.0054 -9.70551 -3.78696
LeftHand  -0.25398 0.0180481 5.50724
RightShoulder  6.33012 10.1803 40.1174
RightArm  -25.1691 -5.00613 35.9578
RightForeArm  5.41343 2.56169 1.74761
RightHand  -0.967357 2.1608 -15.0914
LeftUpLeg  -0.0430704 4.57675 1.74736
LeftLeg  3.37808 8.65424 -3.59082
LeftFoot  -1.35562 -0.0867487 1.08694
LeftToes  1.06246e-005 4.65855e-005 -8.18503e-006
